<svg width="29" height="48" viewBox="0 0 29 48" fill="none" xmlns="http://www.w3.org/2000/svg">
<path d="M1.25717 1.26284C0.858655 1.66054 0.542485 2.13294 0.326763 2.65298C0.11104 3.17303 0 3.73051 0 4.29353C0 4.85654 0.11104 5.41403 0.326763 5.93407C0.542485 6.45412 0.858655 6.92651 1.25717 7.32421L17.9367 24.0037L1.25717 40.6833C0.453385 41.4871 0.00182027 42.5772 0.00182027 43.714C0.00182027 44.8507 0.453385 45.9409 1.25717 46.7447C2.06096 47.5484 3.15113 48 4.28786 48C5.42459 48 6.51476 47.5484 7.31855 46.7447L27.0503 27.0129C27.4488 26.6152 27.765 26.1428 27.9807 25.6228C28.1964 25.1027 28.3074 24.5453 28.3074 23.9823C28.3074 23.4192 28.1964 22.8618 27.9807 22.3417C27.765 21.8217 27.4488 21.3493 27.0503 20.9516L7.31855 1.21985C5.68499 -0.413712 2.93372 -0.413711 1.25717 1.26284Z" fill="#ECECEC"/>
</svg>
