<svg width="29" height="48" viewBox="0 0 29 48" fill="none" xmlns="http://www.w3.org/2000/svg">
<path d="M27.0502 46.7372C27.4487 46.3395 27.7649 45.8671 27.9806 45.347C28.1963 44.827 28.3074 44.2695 28.3074 43.7065C28.3074 43.1435 28.1963 42.586 27.9806 42.0659C27.7649 41.5459 27.4487 41.0735 27.0502 40.6758L10.3707 23.9963L27.0502 7.31672C27.854 6.51293 28.3056 5.42277 28.3056 4.28604C28.3056 3.14931 27.854 2.05913 27.0502 1.25534C26.2464 0.451555 25.1562 -1.20977e-06 24.0195 -1.20977e-06C22.8828 -1.20977e-06 21.7926 0.451555 20.9888 1.25534L1.25711 20.9871C0.858592 21.3848 0.542423 21.8572 0.3267 22.3772C0.110978 22.8973 -5.84344e-05 23.4547 -5.84344e-05 24.0177C-5.84344e-05 24.5808 0.110978 25.1382 0.3267 25.6583C0.542423 26.1783 0.858592 26.6507 1.25711 27.0484L20.9888 46.7801C22.6224 48.4137 25.3736 48.4137 27.0502 46.7372Z" fill="#ECECEC"/>
</svg>
